<svg width="321" height="62" viewBox="0 0 321 62" fill="none" xmlns="http://www.w3.org/2000/svg">
<path fill-rule="evenodd" clip-rule="evenodd" d="M0 61.7701V0.830059H24.34C32.1467 0.830059 38.2067 2.54672 42.52 5.98006C46.8333 9.41339 48.9933 14.2301 49 20.4301C49 25.5034 47.2767 29.5367 43.83 32.5301C40.3833 35.5234 35.7167 37.0201 29.83 37.0201H16.59V61.7701H0ZM16.59 8.40006V29.4501H20.42C24.4933 29.4501 27.4933 28.6767 29.42 27.1301C31.3467 25.5834 32.32 23.1834 32.34 19.9301C32.3989 18.3781 32.1262 16.8314 31.5399 15.3932C30.9535 13.955 30.0672 12.6585 28.94 11.5901C26.504 9.39818 23.3036 8.25237 20.03 8.40006H16.59Z" fill="#D4D0BA"/>
<path fill-rule="evenodd" clip-rule="evenodd" d="M51.18 34.3201L62.68 0.830059H71.75L84 34.3201H74L70.47 24.4301H59.27L55.94 34.3201H51.18ZM60.72 20.1701H69L64.67 8.17006L60.72 20.1701Z" fill="#D4D0BA"/>
<path fill-rule="evenodd" clip-rule="evenodd" d="M87.9 34.3201V0.830059H98.19L109.29 17.9701V0.830059H114.32V34.3201H108.87L92.86 9.85006V34.3201H87.9Z" fill="#D4D0BA"/>
<path fill-rule="evenodd" clip-rule="evenodd" d="M138 0.160056C140.272 0.15271 142.529 0.538392 144.67 1.30006C146.824 2.04463 148.8 3.22929 150.472 4.77872C152.143 6.32814 153.474 8.20844 154.38 10.3001C155.352 12.6272 155.838 15.1283 155.81 17.6501C155.839 20.1567 155.349 22.6423 154.37 24.9501C153.467 27.04 152.139 28.9194 150.471 30.4687C148.803 32.0181 146.831 33.2036 144.68 33.9501C140.364 35.4767 135.656 35.4767 131.34 33.9501C129.177 33.201 127.196 32.0068 125.523 30.4445C123.851 28.8823 122.525 26.9866 121.63 24.8801C120.664 22.5549 120.181 20.0577 120.21 17.5401C120.186 15.0371 120.676 12.5559 121.65 10.2501C122.605 8.019 124.039 6.02524 125.85 4.41006C127.441 2.99896 129.297 1.91804 131.31 1.23006C133.462 0.493036 135.725 0.13111 138 0.160056ZM130.3 17.6401C130.3 21.8334 130.983 25.1067 132.35 27.4601C132.865 28.5207 133.668 29.4151 134.667 30.0409C135.666 30.6667 136.821 30.9985 138 30.9985C139.179 30.9985 140.334 30.6667 141.333 30.0409C142.332 29.4151 143.135 28.5207 143.65 27.4601C145.017 25.1067 145.7 21.8334 145.7 17.6401C145.7 13.4467 145.033 10.1767 143.7 7.83006C143.179 6.77339 142.373 5.88359 141.373 5.26138C140.373 4.63918 139.218 4.30941 138.04 4.30941C136.862 4.30941 135.707 4.63918 134.707 5.26138C133.707 5.88359 132.901 6.77339 132.38 7.83006C130.993 10.1767 130.3 13.4467 130.3 17.6401Z" fill="#D4D0BA"/>
<path fill-rule="evenodd" clip-rule="evenodd" d="M161.66 34.3201V0.830059H176.26C180.467 0.830059 183.77 1.74339 186.17 3.57006C187.332 4.43466 188.267 5.56941 188.892 6.87617C189.518 8.18293 189.816 9.62238 189.76 11.0701C189.833 13.1538 189.119 15.1887 187.76 16.7701C186.209 18.3871 184.198 19.487 182 19.9201L190.09 34.3201H179.57L171.4 17.3201H173.5C175.347 17.4658 177.184 16.9364 178.67 15.8301C179.265 15.2457 179.724 14.5382 180.016 13.7574C180.308 12.9765 180.425 12.1412 180.36 11.3101C180.432 10.4386 180.313 9.56196 180.01 8.74147C179.708 7.92097 179.23 7.17646 178.61 6.56006C177.45 5.52006 175.633 5.00006 173.16 5.00006H170.78V34.3201H161.66Z" fill="#D4D0BA"/>
<path fill-rule="evenodd" clip-rule="evenodd" d="M191.77 34.3201L203.27 0.830059H212.34L224.6 34.3201H214.6L211.07 24.4301H199.86L196.53 34.3201H191.77ZM201.31 20.1701H209.58L205.25 8.17006L201.31 20.1701Z" fill="#D4D0BA"/>
<path fill-rule="evenodd" clip-rule="evenodd" d="M228.49 34.3201V0.830059H237.25L244.79 18.8901L252.28 0.830059H261.47V34.3201H252.13V12.3001L243.09 34.3201H242.19L233.35 13.2801V34.3201H228.49Z" fill="#D4D0BA"/>
<path fill-rule="evenodd" clip-rule="evenodd" d="M260.86 61.4301L281.66 0.830059H298.07L320.28 61.4301H302.28L295.89 43.5301H275.5L269.5 61.4301H260.86ZM278.13 35.8201H293.13L285.29 14.1101L278.13 35.8201Z" fill="#D4D0BA"/>
<path fill-rule="evenodd" clip-rule="evenodd" d="M81.34 49.6701V46.6701H83.34C83.7338 46.6752 84.1102 46.8329 84.39 47.1101C84.6651 47.3716 84.8267 47.7307 84.84 48.1101C84.8401 48.3109 84.8003 48.5097 84.7231 48.6951C84.6458 48.8805 84.5326 49.0487 84.39 49.1901C84.1114 49.469 83.7342 49.6271 83.34 49.6301L81.34 49.6701ZM80.52 53.0101C80.5208 53.0628 80.5423 53.1131 80.58 53.1501C80.5979 53.1692 80.6196 53.1844 80.6437 53.1947C80.6678 53.205 80.6938 53.2103 80.72 53.2101H81.13C81.183 53.2101 81.2339 53.189 81.2714 53.1515C81.3089 53.114 81.33 53.0631 81.33 53.0101V50.3501H83.33L84.69 53.0501C84.7097 53.0968 84.7406 53.138 84.78 53.1701C84.8255 53.1846 84.8745 53.1846 84.92 53.1701H85.42C85.4562 53.1713 85.4922 53.1626 85.5239 53.145C85.5556 53.1274 85.5819 53.1015 85.6 53.0701C85.6166 53.0393 85.6253 53.005 85.6253 52.9701C85.6253 52.9351 85.6166 52.9008 85.6 52.8701L84.17 50.2201C84.6102 50.0475 84.9943 49.7568 85.28 49.3801C85.5598 49.0082 85.7107 48.5554 85.71 48.0901C85.711 47.7951 85.6522 47.5029 85.537 47.2313C85.4219 46.9598 85.2528 46.7144 85.04 46.5101C84.6073 46.095 84.0296 45.8654 83.43 45.8701H80.73C80.6772 45.8708 80.6269 45.8924 80.59 45.9301C80.5523 45.967 80.5308 46.0173 80.53 46.0701L80.52 53.0101Z" fill="#D4D0BA"/>
<path fill-rule="evenodd" clip-rule="evenodd" d="M89.51 53.0001C89.5107 53.0528 89.5323 53.1031 89.57 53.1401C89.6069 53.1777 89.6573 53.1993 89.71 53.2001H93.82C93.8728 53.1993 93.9231 53.1777 93.96 53.1401C93.9905 53.1001 94.0047 53.0501 94 53.0001V52.7001C93.9992 52.6473 93.9777 52.597 93.94 52.5601C93.9031 52.5224 93.8528 52.5008 93.8 52.5001H90.3V49.8401H93.3C93.3528 49.8393 93.4031 49.8177 93.44 49.7801C93.4591 49.7621 93.4743 49.7404 93.4846 49.7163C93.495 49.6922 93.5002 49.6663 93.5 49.6401V49.3401C93.5 49.287 93.4789 49.2361 93.4414 49.1986C93.4039 49.1611 93.353 49.1401 93.3 49.1401H90.3V46.6101H93.8C93.8528 46.6093 93.9031 46.5877 93.94 46.5501C93.9777 46.5131 93.9992 46.4628 94 46.4101V46.1101C94.0103 46.0741 94.0103 46.036 94 46.0001C93.9631 45.9624 93.9128 45.9408 93.86 45.9401H89.75C89.6972 45.9408 89.6469 45.9624 89.61 46.0001C89.5723 46.037 89.5508 46.0873 89.55 46.1401L89.51 53.0001Z" fill="#D4D0BA"/>
<path fill-rule="evenodd" clip-rule="evenodd" d="M97.33 52.4701C97.4428 52.5693 97.5631 52.6596 97.69 52.7401C97.9272 52.8968 98.1823 53.0244 98.45 53.1201C98.7996 53.2458 99.1684 53.3101 99.54 53.3101C99.9316 53.311 100.318 53.222 100.67 53.0501C100.993 52.8955 101.272 52.6615 101.48 52.3701C101.686 52.0776 101.794 51.7277 101.79 51.3701C101.798 51.1042 101.746 50.8399 101.637 50.5973C101.528 50.3547 101.365 50.1402 101.16 49.9701C100.653 49.5754 100.086 49.2648 99.48 49.0501C99.1186 48.9141 98.7811 48.7218 98.48 48.4801C98.3573 48.3757 98.2594 48.2452 98.1937 48.0981C98.1279 47.951 98.0959 47.7911 98.1 47.6301C98.1035 47.4587 98.148 47.2906 98.23 47.1401C98.3338 46.95 98.49 46.7938 98.68 46.6901C98.9444 46.5497 99.2408 46.4807 99.54 46.4901C99.7943 46.4857 100.048 46.5229 100.29 46.6001C100.514 46.6791 100.729 46.783 100.93 46.9101C100.992 46.9507 101.066 46.9716 101.14 46.9701C101.173 46.9642 101.204 46.9502 101.23 46.9292C101.257 46.9083 101.277 46.881 101.29 46.8501L101.39 46.6701C101.408 46.6325 101.417 46.5916 101.417 46.5501C101.417 46.5085 101.408 46.4676 101.39 46.4301C101.371 46.3824 101.336 46.3433 101.29 46.3201L101.05 46.1801C100.849 46.0736 100.638 45.9865 100.42 45.9201C100.122 45.8291 99.8118 45.7819 99.5 45.7801C99.0424 45.7657 98.5895 45.8764 98.19 46.1001C97.8924 46.2768 97.6499 46.5331 97.49 46.84C97.3143 47.1797 97.247 47.565 97.2971 47.944C97.3471 48.3231 97.5122 48.6777 97.77 48.9601C98.1655 49.3096 98.6235 49.581 99.12 49.7601C99.6062 49.9452 100.064 50.1977 100.48 50.5101C100.621 50.6141 100.736 50.7495 100.816 50.9058C100.896 51.062 100.938 51.2346 100.94 51.4101C100.941 51.5691 100.907 51.7264 100.841 51.8714C100.776 52.0163 100.68 52.1454 100.56 52.2501C100.28 52.4837 99.9247 52.608 99.56 52.6001C99.2644 52.5964 98.9723 52.5352 98.7 52.4201C98.4748 52.3265 98.2602 52.2092 98.06 52.0701L97.77 51.84C97.6967 51.78 97.6367 51.7567 97.59 51.7701C97.5278 51.797 97.4755 51.8424 97.44 51.9001L97.28 52.1001C97.2133 52.1934 97.1967 52.2667 97.23 52.3201C97.2515 52.377 97.2857 52.4283 97.33 52.4701Z" fill="#D4D0BA"/>
<path fill-rule="evenodd" clip-rule="evenodd" d="M106.72 53.0001C106.72 53.0531 106.741 53.104 106.779 53.1415C106.816 53.179 106.867 53.2001 106.92 53.2001H107.32C107.373 53.2001 107.424 53.179 107.461 53.1415C107.499 53.104 107.52 53.0531 107.52 53.0001V46.6001H109.33C109.383 46.5993 109.433 46.5777 109.47 46.5401C109.508 46.5031 109.529 46.4528 109.53 46.4001V46.1001C109.529 46.0473 109.508 45.997 109.47 45.9601C109.433 45.9224 109.383 45.9008 109.33 45.9001H104.9C104.847 45.9008 104.797 45.9224 104.76 45.9601C104.722 45.997 104.701 46.0473 104.7 46.1001V46.4001C104.701 46.4528 104.722 46.5031 104.76 46.5401C104.797 46.5777 104.847 46.5993 104.9 46.6001H106.71L106.72 53.0001Z" fill="#D4D0BA"/>
<path fill-rule="evenodd" clip-rule="evenodd" d="M113.5 50.7301L115.02 47.3101H115.1L116.62 50.7301H113.5ZM111.85 53.2101H112.27C112.309 53.223 112.351 53.223 112.39 53.2101C112.417 53.1896 112.438 53.1619 112.45 53.1301L113.21 51.4101H116.91L117.68 53.1301C117.692 53.1619 117.713 53.1896 117.74 53.2101C117.779 53.223 117.821 53.223 117.86 53.2101H118.28C118.313 53.2117 118.345 53.2052 118.375 53.1913C118.405 53.1773 118.43 53.1563 118.45 53.1301C118.467 53.1012 118.475 53.0684 118.475 53.0351C118.475 53.0017 118.467 52.9689 118.45 52.9401L115.3 45.9401C115.284 45.9081 115.26 45.8806 115.23 45.8601C115.194 45.8486 115.156 45.8486 115.12 45.8601H115C114.964 45.8486 114.926 45.8486 114.89 45.8601C114.86 45.8806 114.836 45.9081 114.82 45.9401L111.65 52.9401C111.633 52.9689 111.625 53.0017 111.625 53.0351C111.625 53.0684 111.633 53.1012 111.65 53.1301C111.672 53.1611 111.703 53.1851 111.738 53.1993C111.774 53.2135 111.813 53.2172 111.85 53.2101Z" fill="#D4D0BA"/>
<path fill-rule="evenodd" clip-rule="evenodd" d="M121.53 50.5601C121.53 51.292 121.821 51.9941 122.338 52.5117C122.856 53.0293 123.558 53.3201 124.29 53.3201C125.022 53.3201 125.724 53.0293 126.242 52.5117C126.759 51.9941 127.05 51.292 127.05 50.5601V46.1101C127.05 46.0838 127.045 46.0578 127.035 46.0335C127.025 46.0093 127.01 45.9872 126.991 45.9686C126.973 45.9501 126.951 45.9353 126.927 45.9253C126.902 45.9152 126.876 45.9101 126.85 45.9101H126.45C126.424 45.9099 126.398 45.9151 126.374 45.9254C126.35 45.9357 126.328 45.9509 126.31 45.9701C126.272 46.007 126.251 46.0573 126.25 46.1101V50.5201C126.267 51.0597 126.077 51.5854 125.72 51.9901C125.532 52.1824 125.306 52.3334 125.056 52.4333C124.807 52.5331 124.539 52.5797 124.27 52.5701C124.002 52.5796 123.735 52.5319 123.486 52.4301C123.238 52.3284 123.014 52.175 122.83 51.9801C122.478 51.5688 122.293 51.041 122.31 50.5001V46.1101C122.309 46.0573 122.288 46.007 122.25 45.9701C122.232 45.9509 122.21 45.9357 122.186 45.9254C122.162 45.9151 122.136 45.9099 122.11 45.9101H121.71C121.684 45.9101 121.658 45.9152 121.633 45.9253C121.609 45.9353 121.587 45.9501 121.569 45.9686C121.55 45.9872 121.535 46.0093 121.525 46.0335C121.515 46.0578 121.51 46.0838 121.51 46.1101L121.53 50.5601Z" fill="#D4D0BA"/>
<path fill-rule="evenodd" clip-rule="evenodd" d="M132 49.6701V46.6701H134C134.394 46.6752 134.77 46.8329 135.05 47.1101C135.325 47.3716 135.487 47.7307 135.5 48.1101C135.5 48.3109 135.46 48.5097 135.383 48.6951C135.306 48.8805 135.193 49.0487 135.05 49.1901C134.771 49.469 134.394 49.6271 134 49.6301L132 49.6701ZM131.2 53.0001C131.201 53.0528 131.222 53.1031 131.26 53.1401C131.278 53.1592 131.3 53.1744 131.324 53.1847C131.348 53.195 131.374 53.2003 131.4 53.2001H131.81C131.863 53.2001 131.914 53.179 131.951 53.1415C131.989 53.104 132.01 53.0531 132.01 53.0001V50.3401H134.01L135.37 53.0401C135.39 53.0868 135.421 53.128 135.46 53.1601C135.506 53.1746 135.554 53.1746 135.6 53.1601H136.1C136.136 53.1613 136.172 53.1526 136.204 53.135C136.236 53.1174 136.262 53.0915 136.28 53.0601C136.297 53.0293 136.305 52.995 136.305 52.9601C136.305 52.9251 136.297 52.8908 136.28 52.8601L134.85 50.2101C135.29 50.0375 135.674 49.7468 135.96 49.3701C136.24 48.9982 136.391 48.5454 136.39 48.0801C136.391 47.7851 136.332 47.4929 136.217 47.2214C136.102 46.9498 135.933 46.7044 135.72 46.5001C135.287 46.085 134.71 45.8554 134.11 45.8601H131.41C131.357 45.8608 131.307 45.8824 131.27 45.9201C131.232 45.957 131.211 46.0073 131.21 46.0601L131.2 53.0001Z" fill="#D4D0BA"/>
<path fill-rule="evenodd" clip-rule="evenodd" d="M141.08 50.7301L142.6 47.3101H142.68L144.2 50.7301H141.08ZM139.43 53.2101H139.85C139.889 53.223 139.931 53.223 139.97 53.2101C139.997 53.1896 140.018 53.1619 140.03 53.1301L140.79 51.4101H144.49L145.26 53.1301C145.272 53.1619 145.293 53.1896 145.32 53.2101C145.359 53.223 145.401 53.223 145.44 53.2101H145.86C145.893 53.2117 145.925 53.2052 145.955 53.1913C145.985 53.1773 146.01 53.1563 146.03 53.1301C146.047 53.1012 146.055 53.0684 146.055 53.0351C146.055 53.0017 146.047 52.9689 146.03 52.9401L142.88 45.9401C142.864 45.9081 142.84 45.8806 142.81 45.8601C142.774 45.8486 142.736 45.8486 142.7 45.8601H142.6C142.564 45.8486 142.526 45.8486 142.49 45.8601C142.46 45.8806 142.436 45.9081 142.42 45.9401L139.25 52.9401C139.233 52.9689 139.225 53.0017 139.225 53.0351C139.225 53.0684 139.233 53.1012 139.25 53.1301C139.271 53.1594 139.3 53.1823 139.334 53.1964C139.367 53.2105 139.404 53.2152 139.44 53.2101H139.43Z" fill="#D4D0BA"/>
<path fill-rule="evenodd" clip-rule="evenodd" d="M149.33 53.0001C149.33 53.0531 149.351 53.104 149.389 53.1415C149.426 53.179 149.477 53.2001 149.53 53.2001H149.89C149.916 53.2002 149.942 53.195 149.966 53.1847C149.99 53.1744 150.012 53.1592 150.03 53.1401C150.068 53.1031 150.089 53.0528 150.09 53.0001V47.3301L154.81 53.2201C154.826 53.2495 154.851 53.2737 154.88 53.2901H155.05C155.101 53.292 155.151 53.2741 155.19 53.2401C155.208 53.2236 155.223 53.2036 155.233 53.1813C155.244 53.1589 155.249 53.1347 155.25 53.1101V46.1101C155.25 46.0838 155.245 46.0578 155.235 46.0335C155.225 46.0093 155.21 45.9872 155.191 45.9686C155.173 45.9501 155.151 45.9353 155.127 45.9253C155.102 45.9152 155.076 45.9101 155.05 45.9101H154.69C154.664 45.9099 154.638 45.9151 154.614 45.9254C154.59 45.9357 154.568 45.9509 154.55 45.9701C154.512 46.007 154.491 46.0573 154.49 46.1101V51.6601L149.85 45.8901C149.834 45.8606 149.809 45.8364 149.78 45.8201H149.53C149.479 45.8181 149.429 45.836 149.39 45.8701C149.372 45.8865 149.357 45.9065 149.347 45.9288C149.336 45.9512 149.331 45.9754 149.33 46.0001V53.0001Z" fill="#D4D0BA"/>
<path fill-rule="evenodd" clip-rule="evenodd" d="M160.77 53.0001C160.77 53.0531 160.791 53.104 160.829 53.1415C160.866 53.179 160.917 53.2001 160.97 53.2001H161.37C161.423 53.2001 161.474 53.179 161.511 53.1415C161.549 53.104 161.57 53.0531 161.57 53.0001V46.6001H163.38C163.433 46.5993 163.483 46.5777 163.52 46.5401C163.558 46.5031 163.579 46.4528 163.58 46.4001V46.1001C163.579 46.0473 163.558 45.997 163.52 45.9601C163.483 45.9224 163.433 45.9008 163.38 45.9001H159C158.947 45.9008 158.897 45.9224 158.86 45.9601C158.822 45.997 158.801 46.0473 158.8 46.1001V46.4001C158.801 46.4528 158.822 46.5031 158.86 46.5401C158.897 46.5777 158.947 46.5993 159 46.6001H160.81L160.77 53.0001Z" fill="#D4D0BA"/>
<path fill-rule="evenodd" clip-rule="evenodd" d="M172.11 51.4101C172.111 51.1534 172.18 50.9016 172.31 50.6801C172.431 50.4723 172.587 50.2863 172.77 50.1301C172.932 49.9918 173.106 49.868 173.29 49.7601L175.22 51.7601C175.004 52.0285 174.735 52.2497 174.43 52.4101C174.121 52.5694 173.778 52.6517 173.43 52.6501C173.085 52.6531 172.753 52.5244 172.5 52.2901C172.379 52.1771 172.282 52.041 172.215 51.8898C172.148 51.7386 172.112 51.5754 172.11 51.4101ZM173.44 48.9401L173.21 48.7101C173.027 48.5407 172.866 48.3493 172.73 48.1401C172.609 47.9557 172.543 47.7406 172.54 47.5201C172.533 47.2372 172.633 46.9621 172.82 46.7501C172.924 46.6437 173.048 46.5602 173.186 46.5051C173.324 46.45 173.472 46.4244 173.62 46.4301C173.77 46.4254 173.919 46.4515 174.058 46.5065C174.197 46.5615 174.324 46.6444 174.43 46.7501C174.609 46.9354 174.709 47.1826 174.71 47.4401C174.706 47.679 174.625 47.9102 174.48 48.1001C174.336 48.2886 174.164 48.4539 173.97 48.59C173.77 48.73 173.59 48.8467 173.43 48.9401H173.44ZM171.38 51.4001C171.37 51.896 171.552 52.3766 171.89 52.7401C172.086 52.9353 172.321 53.0876 172.579 53.1875C172.837 53.2873 173.113 53.3325 173.39 53.3201C173.832 53.3222 174.269 53.2266 174.67 53.0401C175.051 52.8571 175.392 52.5986 175.67 52.2801L176.56 53.2001C176.588 53.2346 176.623 53.263 176.663 53.2836C176.702 53.3042 176.746 53.3166 176.79 53.3201C176.869 53.3189 176.945 53.2866 177 53.2301L177.13 53.1201C177.237 53.0067 177.28 52.9134 177.26 52.84C177.241 52.7627 177.199 52.6929 177.14 52.6401L176.14 51.6401C176.337 51.2837 176.488 50.904 176.59 50.5101C176.695 50.1119 176.749 49.7019 176.75 49.2901C176.76 49.2406 176.76 49.1895 176.75 49.1401C176.75 49.0867 176.69 49.0567 176.57 49.0501H176.32C176.262 49.031 176.198 49.031 176.14 49.0501C176.14 49.0501 176.08 49.1501 176.08 49.2601C176.082 49.5965 176.045 49.932 175.97 50.2601C175.901 50.5645 175.797 50.8598 175.66 51.1401L173.94 49.4201C174.175 49.2766 174.399 49.1162 174.61 48.9401C174.846 48.7489 175.052 48.523 175.22 48.2701C175.39 48.0185 175.483 47.7234 175.49 47.4201C175.493 47.2105 175.454 47.0024 175.375 46.8082C175.296 46.6141 175.179 46.4378 175.03 46.2901C174.855 46.1286 174.651 46.0031 174.428 45.9207C174.205 45.8384 173.968 45.8007 173.73 45.8101C173.38 45.8076 173.035 45.8973 172.73 46.0701C172.471 46.2227 172.26 46.4443 172.12 46.7101C171.99 46.9531 171.921 47.2243 171.92 47.5001C171.919 47.7932 171.991 48.0819 172.13 48.34C172.271 48.5928 172.446 48.8249 172.65 49.0301L172.9 49.3001C172.678 49.4281 172.467 49.5753 172.27 49.7401C172.041 49.9314 171.848 50.1616 171.7 50.4201C171.51 50.7131 171.399 51.051 171.38 51.4001Z" fill="#D4D0BA"/>
<path fill-rule="evenodd" clip-rule="evenodd" d="M189.11 49.4901C189.376 49.3315 189.608 49.1206 189.79 48.8701C189.999 48.5782 190.115 48.2293 190.12 47.8701C190.125 47.6138 190.075 47.3595 189.975 47.1235C189.876 46.8875 189.727 46.6751 189.54 46.5001C189.118 46.1299 188.571 45.9333 188.01 45.9501H185.71C185.657 45.9508 185.607 45.9724 185.57 46.0101C185.532 46.047 185.511 46.0973 185.51 46.1501V53.0001C185.511 53.0528 185.532 53.1031 185.57 53.1401C185.607 53.1777 185.657 53.1993 185.71 53.2001H188.16C188.74 53.216 189.304 53.0125 189.74 52.6301C189.937 52.4463 190.093 52.2231 190.198 51.975C190.303 51.7269 190.355 51.4595 190.35 51.1901C190.356 50.7819 190.21 50.3861 189.94 50.0801C189.71 49.8298 189.426 49.6349 189.11 49.5101V49.4901ZM186.26 52.4901V49.8801H188.05C188.416 49.874 188.772 50.002 189.05 50.2401C189.18 50.3554 189.284 50.4971 189.354 50.6558C189.425 50.8144 189.461 50.9864 189.46 51.1601C189.464 51.3334 189.433 51.5058 189.369 51.6672C189.306 51.8285 189.211 51.9757 189.09 52.1001C188.957 52.2263 188.8 52.3249 188.628 52.3901C188.456 52.4553 188.274 52.4859 188.09 52.4801L186.26 52.4901ZM186.26 49.1601V46.6301H187.85C188.215 46.6116 188.572 46.7333 188.85 46.9701C188.971 47.0879 189.065 47.2299 189.127 47.3867C189.189 47.5435 189.217 47.7116 189.21 47.8801C189.215 48.0512 189.185 48.2216 189.124 48.3813C189.062 48.5409 188.969 48.6867 188.85 48.8101C188.717 48.9368 188.56 49.0356 188.388 49.1009C188.217 49.1662 188.034 49.1965 187.85 49.1901L186.26 49.1601Z" fill="#D4D0BA"/>
<path fill-rule="evenodd" clip-rule="evenodd" d="M195.06 50.7301L196.58 47.3101H196.66L198.18 50.7301H195.06ZM193.41 53.2101H193.83C193.869 53.223 193.911 53.223 193.95 53.2101C193.977 53.1896 193.998 53.1619 194.01 53.1301L194.77 51.4101H198.47L199.24 53.1301C199.252 53.1619 199.273 53.1896 199.3 53.2101C199.339 53.223 199.381 53.223 199.42 53.2101H199.84C199.873 53.2117 199.905 53.2052 199.935 53.1913C199.965 53.1773 199.99 53.1563 200.01 53.1301C200.027 53.1012 200.035 53.0684 200.035 53.0351C200.035 53.0017 200.027 52.9689 200.01 52.9401L196.86 45.9401C196.844 45.9081 196.82 45.8806 196.79 45.8601C196.754 45.8486 196.716 45.8486 196.68 45.8601H196.58C196.544 45.8486 196.506 45.8486 196.47 45.8601C196.44 45.8806 196.416 45.9081 196.4 45.9401L193.23 52.9401C193.213 52.9689 193.205 53.0017 193.205 53.0351C193.205 53.0684 193.213 53.1012 193.23 53.1301C193.251 53.1578 193.278 53.1797 193.309 53.1938C193.341 53.2078 193.376 53.2134 193.41 53.2101Z" fill="#D4D0BA"/>
<path fill-rule="evenodd" clip-rule="evenodd" d="M204.13 49.6701V46.6701H206.13C206.524 46.6752 206.9 46.8329 207.18 47.1101C207.455 47.3716 207.617 47.7307 207.63 48.1101C207.63 48.3109 207.59 48.5097 207.513 48.6951C207.436 48.8805 207.323 49.0487 207.18 49.1901C206.901 49.469 206.524 49.6271 206.13 49.6301L204.13 49.6701ZM203.31 53.0101C203.311 53.0628 203.332 53.1131 203.37 53.1501C203.388 53.1692 203.41 53.1844 203.434 53.1947C203.458 53.205 203.484 53.2103 203.51 53.2101H203.92C203.973 53.2101 204.024 53.189 204.061 53.1515C204.099 53.114 204.12 53.0631 204.12 53.0101V50.3501H206.12L207.48 53.0501C207.5 53.0968 207.531 53.138 207.57 53.1701C207.616 53.1846 207.664 53.1846 207.71 53.1701H208.21C208.246 53.1713 208.282 53.1626 208.314 53.145C208.346 53.1274 208.372 53.1015 208.39 53.0701C208.407 53.0393 208.415 53.005 208.415 52.9701C208.415 52.9351 208.407 52.9008 208.39 52.8701L206.96 50.2201C207.4 50.0475 207.784 49.7568 208.07 49.3801C208.35 49.0082 208.501 48.5554 208.5 48.0901C208.501 47.7951 208.442 47.5029 208.327 47.2313C208.212 46.9598 208.043 46.7144 207.83 46.5101C207.397 46.095 206.82 45.8654 206.22 45.8701H203.52C203.467 45.8708 203.417 45.8924 203.38 45.9301C203.342 45.967 203.321 46.0173 203.32 46.0701L203.31 53.0101Z" fill="#D4D0BA"/>
<path fill-rule="evenodd" clip-rule="evenodd" d="M35.36 49.4501C35.3415 49.7056 35.3866 49.9618 35.4913 50.1956C35.596 50.4294 35.757 50.6337 35.96 50.7901C36.3762 51.0446 36.8651 51.1537 37.35 51.1001C37.8259 51.0885 38.2949 50.9831 38.73 50.7901C38.9809 50.6965 39.2041 50.5412 39.3789 50.3384C39.5537 50.1356 39.6745 49.892 39.73 49.6301C39.7258 49.3576 39.6422 49.0924 39.4894 48.8668C39.3366 48.6412 39.1214 48.4651 38.87 48.3601C38.4418 48.1377 37.9716 48.0083 37.49 47.9801C37.0161 47.9173 36.5342 47.9902 36.1 48.1901C35.8788 48.3188 35.6946 48.5024 35.5649 48.7231C35.4353 48.9438 35.3647 49.1942 35.36 49.4501Z" fill="#D4D0BA"/>
<path fill-rule="evenodd" clip-rule="evenodd" d="M35.94 47.7801C35.945 47.8029 35.9548 47.8245 35.9685 47.8434C35.9823 47.8623 35.9998 47.8782 36.02 47.8901C36.02 47.8901 36.08 47.8901 36.11 47.8901C36.613 47.7304 37.1436 47.6764 37.6684 47.7315C38.1933 47.7865 38.7011 47.9495 39.16 48.2101C39.16 48.2101 39.26 48.3101 39.26 48.2101C39.2685 48.1773 39.2685 48.1428 39.26 48.1101C38.8495 47.2288 38.1413 46.5205 37.26 46.1101C37.0408 45.998 36.788 45.9708 36.55 46.0335C36.312 46.0962 36.1055 46.2445 35.97 46.4501C35.7925 46.8737 35.7818 47.3488 35.94 47.7801Z" fill="#D4D0BA"/>
<path fill-rule="evenodd" clip-rule="evenodd" d="M35.88 52.6301C36.0173 52.8364 36.2263 52.9843 36.4665 53.0453C36.7067 53.1063 36.9609 53.0759 37.18 52.9601C38.0613 52.5496 38.7695 51.8413 39.18 50.9601C39.18 50.9601 39.24 50.8601 39.18 50.8401C39.12 50.8201 39.12 50.8401 39.09 50.9001C38.6294 51.1617 38.119 51.3236 37.5919 51.3752C37.0647 51.4269 36.5326 51.3672 36.03 51.2001C36.0152 51.1919 35.9988 51.1872 35.9819 51.1865C35.965 51.1857 35.9482 51.1888 35.9327 51.1956C35.9172 51.2023 35.9035 51.2126 35.8927 51.2255C35.8818 51.2384 35.874 51.2537 35.87 51.2701C35.7015 51.7084 35.7051 52.1942 35.88 52.6301Z" fill="#D4D0BA"/>
<path fill-rule="evenodd" clip-rule="evenodd" d="M39.21 51.5801C40.51 51.9801 41.36 50.6401 41.35 49.5801C41.34 48.5201 40.52 47.2001 39.24 47.5801C39.4433 47.8881 39.5984 48.2253 39.7 48.5801C39.7665 48.7561 39.8468 48.9266 39.94 49.09C40.0082 49.2482 40.0456 49.4179 40.05 49.59C40.05 49.97 39.8 50.26 39.69 50.59C39.5895 50.9457 39.427 51.2809 39.21 51.5801Z" fill="#D4D0BA"/>
<path fill-rule="evenodd" clip-rule="evenodd" d="M40.58 47.4301C40.9056 47.6793 41.1694 48.0002 41.3509 48.3679C41.5325 48.7355 41.6269 49.14 41.6269 49.5501C41.6269 49.9601 41.5325 50.3646 41.3509 50.7323C41.1694 51.0999 40.9056 51.4208 40.58 51.6701C42.06 52.2801 43.09 50.6701 43.04 49.4401C42.99 48.2101 42 46.8101 40.58 47.4301Z" fill="#D4D0BA"/>
<path fill-rule="evenodd" clip-rule="evenodd" d="M42.17 51.8601C43.71 52.5001 44.8 50.8601 44.82 49.5901C44.84 48.3201 43.69 46.5901 42.18 47.2601C42.5429 47.5242 42.8381 47.8705 43.0413 48.2708C43.2445 48.671 43.35 49.1137 43.349 49.5626C43.348 50.0115 43.2407 50.4537 43.0357 50.8531C42.8308 51.2524 42.5341 51.5975 42.17 51.8601Z" fill="#D4D0BA"/>
<path fill-rule="evenodd" clip-rule="evenodd" d="M43.47 40.7001C44.05 42.2001 45.85 42.1001 47.06 42.7001C47.32 43.2801 47.49 43.9001 47.73 44.4901C47.8919 44.7549 47.9943 45.0517 48.03 45.3601C48.03 45.6701 48.03 45.9601 48.03 46.2801C47.4917 46.432 46.9864 46.6829 46.54 47.0201C46.8308 47.3553 46.9875 47.7863 46.98 48.2301C46.98 48.6901 46.68 49.0601 46.66 49.5201C46.64 49.9801 46.94 50.3601 46.98 50.8101C46.9958 51.045 46.965 51.2808 46.8895 51.5039C46.814 51.727 46.6952 51.933 46.54 52.1101C46.9868 52.4464 47.492 52.6973 48.03 52.8501C48.03 53.1601 48.03 53.4301 48.03 53.7301C47.9996 54.0567 47.8934 54.3717 47.72 54.6501C47.48 55.2401 47.32 55.8601 47.05 56.4401C45.84 57.0101 44.05 56.9001 43.46 58.4401C44.7354 57.7796 46.0759 57.2534 47.46 56.8701C47.77 56.2501 48.09 55.6401 48.39 55.0201C48.5684 54.6974 48.7254 54.3633 48.86 54.0201C48.96 53.7101 48.92 53.3601 49.02 53.0201L49.94 53.0801C50.0605 53.7556 50.2208 54.4234 50.42 55.0801C50.2072 55.5484 50.0721 56.0483 50.02 56.5601C49.8823 57.0987 49.7154 57.6295 49.52 58.1501C48.52 58.7101 47.01 58.5901 46.52 59.8601C47.572 59.3033 48.682 58.864 49.83 58.5501C50.2105 57.3487 50.6511 56.1673 51.15 55.0101C50.9924 54.3533 50.892 53.6841 50.85 53.0101L51.79 52.9301C51.9039 53.3812 52.0442 53.8253 52.21 54.2601C52.2903 54.4934 52.3872 54.7206 52.5 54.9401C52.594 55.1606 52.6251 55.4029 52.59 55.6401C52.6126 56.5778 52.7197 57.5116 52.91 58.4301C52.35 58.9501 51.52 59.5001 51.5 60.3501C51.5 60.4201 51.6 60.4101 51.64 60.3501C52.1477 59.7479 52.7213 59.2045 53.35 58.7301C53.378 58.6993 53.3988 58.6627 53.4109 58.623C53.423 58.5832 53.4261 58.5412 53.42 58.5001C53.2601 57.5516 53.1765 56.5919 53.17 55.6301C53.17 55.3801 53.25 55.1401 53.24 54.8901C53.1981 54.6504 53.131 54.4157 53.04 54.1901C52.92 53.7201 52.79 53.2801 52.68 52.7901C54.0226 52.5858 55.2861 52.0265 56.34 51.1701C56.54 51.2201 56.73 51.1701 56.92 51.2801C56.9683 51.3092 57.0236 51.3245 57.08 51.3245C57.1364 51.3245 57.1917 51.3092 57.24 51.2801C57.3325 51.1952 57.3956 51.0832 57.42 50.9601C57.42 50.7901 57.35 50.6501 57.3 50.4901C59.7438 50.679 62.1446 51.2388 64.42 52.1501C67.0279 53.2681 69.1074 55.3441 70.23 57.9501C70.23 58.0101 70.3 58.0401 70.28 57.9501C69.7908 56.6287 69.0438 55.4178 68.0824 54.3878C67.121 53.3578 65.9645 52.5291 64.68 51.9501C62.3105 50.937 59.7965 50.3026 57.23 50.0701C57.23 50.0701 57.12 50.0701 57.13 50.0701C57.14 50.0701 57.13 49.9601 57.13 49.9501C57.74 49.8201 58.39 49.7601 59.01 49.6501C59.0313 49.5885 59.0313 49.5216 59.01 49.4601C58.71 49.3901 58.39 49.3701 58.09 49.3101C57.7526 49.2808 57.4181 49.2239 57.09 49.1401C57.09 49.1401 57.09 49.0201 57.09 49.0101H57.18C59.6802 48.7799 62.1312 48.173 64.45 47.2101C65.7699 46.6391 66.9606 45.807 67.9505 44.7639C68.9404 43.7207 69.709 42.488 70.21 41.1401C70.21 41.0601 70.21 41.0701 70.21 41.1401C69.0853 43.7342 67.0202 45.8064 64.43 46.9401C62.1454 47.8165 59.7483 48.3653 57.31 48.5701C57.2978 48.5344 57.2978 48.4957 57.31 48.4601C57.3728 48.3623 57.3944 48.2437 57.37 48.1301C57.3462 48.0067 57.2831 47.8944 57.19 47.8101C57.1338 47.7776 57.07 47.7605 57.005 47.7605C56.9401 47.7605 56.8763 47.7776 56.82 47.8101C56.6386 47.851 56.455 47.881 56.27 47.9001C55.2205 47.0508 53.9644 46.4952 52.63 46.2901C52.72 45.8001 52.87 45.3601 52.98 44.8901C53.0789 44.6498 53.1461 44.3977 53.18 44.1401C53.18 43.8901 53.12 43.6501 53.11 43.4001C53.1268 42.3952 53.2137 41.3928 53.37 40.4001C52.82 39.7801 52.03 39.4001 51.58 38.6801C51.58 38.6201 51.43 38.6101 51.43 38.6801C51.43 39.5401 52.28 40.0901 52.85 40.6001C52.6618 41.5056 52.5514 42.4257 52.52 43.3501C52.5577 43.5815 52.5371 43.8186 52.46 44.0401C52.3488 44.2637 52.2519 44.4941 52.17 44.7301C51.9969 45.1759 51.8565 45.6338 51.75 46.1001L50.8 46.0301C50.8415 45.3559 50.9419 44.6867 51.1 44.0301C50.6 42.8733 50.1594 41.6918 49.78 40.4901C48.6318 40.1721 47.5219 39.7295 46.47 39.1701C46.5806 39.4529 46.7603 39.7035 46.9926 39.8992C47.2249 40.0948 47.5025 40.2292 47.8 40.2901C48.36 40.4501 48.92 40.6501 49.46 40.8701C49.62 41.3901 49.78 41.8701 49.92 42.3901C49.9768 42.9311 50.115 43.4604 50.33 43.9601C50.1307 44.6167 49.9704 45.2845 49.85 45.9601L48.93 46.0301C48.83 45.7401 48.86 45.4001 48.78 45.1001C48.6563 44.7539 48.5024 44.4192 48.32 44.1001C48.01 43.4701 47.68 42.8301 47.32 42.2001C45.9897 41.8302 44.6999 41.3277 43.47 40.7001ZM47.69 47.1601C47.8098 47.4034 47.894 47.6627 47.94 47.9301C50.1645 47.1588 52.5709 47.0821 54.84 47.7101C54.9 47.7101 54.91 47.7101 54.84 47.6401C52.5991 46.599 50.052 46.4244 47.69 47.1501V47.1601Z" fill="#D4D0BA"/>
<path fill-rule="evenodd" clip-rule="evenodd" d="M44 47.1601C44.3492 47.4539 44.6299 47.8205 44.8225 48.2342C45.0151 48.6479 45.1148 49.0987 45.1148 49.5551C45.1148 50.0114 45.0151 50.4622 44.8225 50.8759C44.6299 51.2896 44.3492 51.6562 44 51.9501C44.3376 52.2248 44.7641 52.3663 45.199 52.3479C45.6338 52.3295 46.0469 52.1524 46.36 51.8501C46.506 51.6907 46.6105 51.4979 46.6646 51.2887C46.7186 51.0795 46.7205 50.8602 46.67 50.6501C46.5206 50.2785 46.4231 49.8882 46.38 49.4901C46.4595 49.0843 46.563 48.6836 46.69 48.2901C46.718 48.0772 46.6945 47.8607 46.6214 47.6588C46.5483 47.457 46.4278 47.2756 46.27 47.1301C45.9465 46.8718 45.5435 46.7337 45.1296 46.7392C44.7158 46.7446 44.3166 46.8934 44 47.1601Z" fill="#D4D0BA"/>
<path fill-rule="evenodd" clip-rule="evenodd" d="M54.11 46.2001C54.35 46.3201 54.56 46.3701 54.78 46.4701C55 46.5701 55.28 46.7101 55.54 46.8301C55.768 46.3225 55.897 45.776 55.92 45.2201C56.61 44.7101 57.56 44.2901 57.92 43.4401C57.9918 43.2532 58.0014 43.0481 57.9474 42.8553C57.8933 42.6625 57.7785 42.4924 57.62 42.3701C57.4583 42.2589 57.2744 42.1843 57.081 42.1515C56.8875 42.1187 56.6893 42.1284 56.5 42.1801C56.0788 42.3281 55.6959 42.5683 55.3793 42.8832C55.0627 43.1981 54.8204 43.5796 54.67 44.0001C54.4 44.6901 54.33 45.4801 54.11 46.2001Z" fill="#D4D0BA"/>
<path fill-rule="evenodd" clip-rule="evenodd" d="M54.65 55.0801C54.7965 55.5025 55.0335 55.8877 55.3444 56.209C55.6553 56.5303 56.0326 56.7798 56.45 56.9401C56.646 57.0002 56.853 57.0152 57.0556 56.984C57.2582 56.9529 57.4511 56.8763 57.62 56.7601C57.7672 56.6446 57.8757 56.4871 57.9311 56.3084C57.9865 56.1298 57.9861 55.9385 57.93 55.7601C57.61 54.8801 56.63 54.4601 55.93 53.9301C55.9235 53.691 55.8933 53.4532 55.84 53.2201C55.7718 52.9522 55.6883 52.6884 55.59 52.4301C55.59 52.3501 55.52 52.2401 55.43 52.3101C55.3704 52.3501 55.3067 52.3836 55.24 52.4101L54.87 52.59C54.61 52.71 54.38 52.7801 54.09 52.9001C54.31 53.5901 54.4 54.3801 54.65 55.0801Z" fill="#D4D0BA"/>
<path fill-rule="evenodd" clip-rule="evenodd" d="M56.64 41.6701C56.64 41.7201 56.64 41.6701 56.64 41.7601C56.64 41.8501 56.69 41.8101 56.73 41.7601C56.961 41.7114 57.2008 41.7256 57.4244 41.8011C57.648 41.8766 57.8473 42.0107 58.0015 42.1894C58.1557 42.3681 58.2592 42.5849 58.3011 42.8171C58.3431 43.0494 58.322 43.2887 58.24 43.5101C58.7267 43.6556 59.232 43.7297 59.74 43.7301C59.7773 43.7303 59.8139 43.7202 59.8457 43.7007C59.8775 43.6813 59.9032 43.6534 59.92 43.6201C59.9317 43.5809 59.9317 43.5392 59.92 43.5001C59.9406 42.7134 60.2359 41.9587 60.7546 41.3669C61.2733 40.7751 61.9828 40.3836 62.76 40.2601C64.1674 39.9407 65.6328 39.982 67.02 40.3801C67.02 40.3801 67.1 40.3801 67.11 40.3801C67.12 40.3801 67.11 40.3801 67.11 40.3001C66.4152 39.4851 65.5402 38.8431 64.5544 38.4248C63.5685 38.0065 62.4988 37.8234 61.43 37.8901C59.25 38.0001 56.95 39.3001 56.64 41.6701ZM57.43 41.1901C57.43 41.2501 57.43 41.2801 57.51 41.2901C57.7359 41.3468 57.9517 41.4379 58.15 41.5601C58.3172 40.9475 58.6413 40.3892 59.0902 39.9403C59.5392 39.4913 60.0975 39.1673 60.71 39.0001C61.8131 38.7097 62.9655 38.6585 64.09 38.8501C64.1026 38.8556 64.1162 38.8584 64.13 38.8584C64.1438 38.8584 64.1574 38.8556 64.17 38.8501C64.17 38.8501 64.09 38.8501 64.07 38.8501C61.77 38.0001 58.34 38.4901 57.44 41.1901H57.43Z" fill="#D4D0BA"/>
<path fill-rule="evenodd" clip-rule="evenodd" d="M56.63 57.3201C56.86 59.7401 59.18 61.0801 61.36 61.1801C62.4556 61.2565 63.5536 61.0684 64.5613 60.6315C65.5689 60.1947 66.4568 59.522 67.15 58.6701C65.7457 59.0835 64.2596 59.1352 62.83 58.8201C62.042 58.7029 61.3205 58.3119 60.792 57.7158C60.2635 57.1196 59.9619 56.3564 59.94 55.5601C59.9502 55.5207 59.9502 55.4794 59.94 55.4401C59.9328 55.4165 59.92 55.395 59.9025 55.3775C59.8851 55.3601 59.8636 55.3472 59.84 55.3401C59.3066 55.3111 58.7727 55.3893 58.27 55.5701C58.3661 55.7961 58.3918 56.0459 58.3436 56.2868C58.2954 56.5276 58.1757 56.7484 58 56.9201C57.8093 57.1038 57.5698 57.2287 57.31 57.2801C57.0885 57.34 56.857 57.3536 56.63 57.3201ZM64.07 60.3201C64.12 60.3201 64.16 60.2501 64.07 60.2601C62.8483 60.4721 61.5936 60.3898 60.41 60.0201C59.7078 59.7802 59.1013 59.3209 58.68 58.7101C58.4779 58.4221 58.3133 58.1096 58.19 57.7801C58.19 57.7101 58.19 57.5901 58.1 57.5901C58.01 57.5901 57.96 57.6801 57.87 57.7101C57.7209 57.7867 57.5574 57.831 57.39 57.8401C58.25 60.6101 61.74 61.1701 64.06 60.3001L64.07 60.3201Z" fill="#D4D0BA"/>
<path fill-rule="evenodd" clip-rule="evenodd" d="M60.34 43.3901C60.3425 43.4254 60.3584 43.4585 60.3844 43.4826C60.4104 43.5068 60.4445 43.5201 60.48 43.5201C62.37 43.6401 64.62 43.6101 65.94 41.9501C65.94 41.9501 66.01 41.8901 65.94 41.8601C65.87 41.8301 65.88 41.8601 65.85 41.8601C65.091 42.1224 64.2931 42.2543 63.49 42.2501C62.68 42.2501 61.94 41.8201 61.13 41.8101C61.0666 41.8107 61.0041 41.8255 60.9471 41.8531C60.89 41.8808 60.8398 41.9207 60.8 41.9701C60.4796 42.372 60.3161 42.8766 60.34 43.3901Z" fill="#D4D0BA"/>
<path fill-rule="evenodd" clip-rule="evenodd" d="M60.84 57.1301C60.8804 57.1813 60.9321 57.2224 60.9911 57.2502C61.0501 57.278 61.1148 57.2916 61.18 57.2901C62.0644 57.0911 62.9591 56.9409 63.86 56.8401C64.3119 56.865 64.7605 56.932 65.2 57.0401L65.85 57.2201C65.91 57.2201 65.99 57.2901 66 57.2201C66.01 57.1501 65.94 57.1301 65.9 57.0801C65.8119 56.9753 65.7184 56.8752 65.62 56.7801C64.22 55.4401 62.16 55.4701 60.38 55.5901C60.346 55.8646 60.3693 56.1432 60.4485 56.4083C60.5277 56.6734 60.661 56.9191 60.84 57.1301Z" fill="#D4D0BA"/>
<path fill-rule="evenodd" clip-rule="evenodd" d="M252.63 49.6801C252.649 49.4245 252.603 49.1684 252.499 48.9345C252.394 48.7007 252.233 48.4964 252.03 48.3401C251.614 48.0855 251.125 47.9764 250.64 48.0301C250.164 48.0416 249.695 48.147 249.26 48.3401C249.009 48.4336 248.786 48.5889 248.611 48.7917C248.436 48.9945 248.316 49.2381 248.26 49.5001C248.264 49.7725 248.348 50.0377 248.501 50.2633C248.653 50.4889 248.869 50.665 249.12 50.7701C249.548 50.9924 250.018 51.1219 250.5 51.1501C250.974 51.2128 251.456 51.14 251.89 50.9401C252.111 50.8113 252.295 50.6277 252.425 50.407C252.555 50.1863 252.625 49.936 252.63 49.6801Z" fill="#D4D0BA"/>
<path fill-rule="evenodd" clip-rule="evenodd" d="M252.05 51.3401C252.045 51.3172 252.035 51.2956 252.021 51.2767C252.008 51.2578 251.99 51.2419 251.97 51.2301C251.97 51.2301 251.91 51.2301 251.88 51.2301C251.377 51.3897 250.846 51.4437 250.322 51.3887C249.797 51.3336 249.289 51.1707 248.83 50.9101C248.83 50.9101 248.73 50.8101 248.73 50.9101C248.722 50.9429 248.722 50.9773 248.73 51.0101C249.14 51.8913 249.849 52.5996 250.73 53.0101C250.949 53.1221 251.202 53.1493 251.44 53.0866C251.678 53.0239 251.885 52.8756 252.02 52.6701C252.197 52.2464 252.208 51.7713 252.05 51.3401Z" fill="#D4D0BA"/>
<path fill-rule="evenodd" clip-rule="evenodd" d="M252.11 46.4901C251.973 46.2838 251.764 46.1358 251.524 46.0748C251.283 46.0138 251.029 46.0442 250.81 46.1601C249.929 46.5706 249.22 47.2788 248.81 48.1601C248.81 48.1601 248.75 48.2601 248.81 48.2801C248.87 48.3001 248.87 48.2801 248.9 48.2201C249.361 47.9585 249.871 47.7966 250.398 47.7449C250.925 47.6932 251.457 47.7529 251.96 47.9201C251.975 47.9282 251.991 47.9329 252.008 47.9337C252.025 47.9344 252.042 47.9313 252.057 47.9246C252.073 47.9178 252.086 47.9075 252.097 47.8946C252.108 47.8817 252.116 47.8665 252.12 47.8501C252.288 47.4117 252.285 46.9259 252.11 46.4901Z" fill="#D4D0BA"/>
<path fill-rule="evenodd" clip-rule="evenodd" d="M248.79 47.5501C247.49 47.1501 246.64 48.4901 246.65 49.5501C246.66 50.6101 247.48 51.9301 248.76 51.5501C248.557 51.242 248.402 50.9048 248.3 50.5501C248.233 50.374 248.153 50.2035 248.06 50.0401C247.992 49.8819 247.954 49.7122 247.95 49.5401C247.95 49.1601 248.2 48.8701 248.31 48.5401C248.41 48.1844 248.573 47.8492 248.79 47.5501Z" fill="#D4D0BA"/>
<path fill-rule="evenodd" clip-rule="evenodd" d="M247.41 51.6901C247.084 51.4408 246.821 51.1199 246.639 50.7523C246.458 50.3846 246.363 49.9801 246.363 49.5701C246.363 49.16 246.458 48.7555 246.639 48.3879C246.821 48.0202 247.084 47.6993 247.41 47.4501C245.93 46.8401 244.9 48.4501 244.95 49.6801C245 50.9101 246 52.3201 247.41 51.6901Z" fill="#D4D0BA"/>
<path fill-rule="evenodd" clip-rule="evenodd" d="M245.82 47.2701C244.28 46.6301 243.19 48.2701 243.17 49.5401C243.15 50.8101 244.3 52.5401 245.81 51.8701C245.447 51.6059 245.152 51.2596 244.949 50.8593C244.745 50.4591 244.64 50.0164 244.641 49.5675C244.642 49.1186 244.749 48.6764 244.954 48.277C245.159 47.8777 245.456 47.5326 245.82 47.2701Z" fill="#D4D0BA"/>
<path fill-rule="evenodd" clip-rule="evenodd" d="M244.52 58.4301C243.94 56.9301 242.14 57.0301 240.93 56.4301C240.67 55.8501 240.5 55.2301 240.26 54.6401C240.098 54.3751 239.996 54.0783 239.96 53.7701C239.96 53.4601 239.96 53.1701 239.96 52.8501C240.498 52.6981 241.004 52.4472 241.45 52.1101C241.159 51.7748 241.002 51.3438 241.01 50.9001C241.01 50.4401 241.31 50.0701 241.33 49.6101C241.35 49.1501 241.05 48.7701 241.01 48.3201C240.994 48.0851 241.025 47.8493 241.1 47.6262C241.176 47.4031 241.295 47.1971 241.45 47.0201C241.003 46.6837 240.498 46.4328 239.96 46.2801C239.96 45.9701 239.96 45.7001 239.96 45.4001C239.99 45.0735 240.097 44.7585 240.27 44.4801C240.51 43.8901 240.67 43.2701 240.94 42.6901C242.15 42.1201 243.94 42.2301 244.53 40.6901C243.255 41.3505 241.914 41.8767 240.53 42.2601C240.22 42.8801 239.9 43.4901 239.6 44.1101C239.422 44.4327 239.265 44.7668 239.13 45.1101C239.03 45.4201 239.07 45.7701 238.97 46.1101L238.05 46.0501C237.929 45.3745 237.769 44.7067 237.57 44.0501C237.783 43.5817 237.918 43.0818 237.97 42.5701C238.108 42.0314 238.275 41.5006 238.47 40.9801C239.47 40.4201 240.98 40.5401 241.47 39.2701C240.418 39.8268 239.308 40.2661 238.16 40.5801C237.779 41.7814 237.339 42.9629 236.84 44.1201C236.998 44.7768 237.098 45.446 237.14 46.1201L236.2 46.2001C236.086 45.7489 235.946 45.3048 235.78 44.8701C235.7 44.6367 235.603 44.4095 235.49 44.1901C235.396 43.9695 235.365 43.7272 235.4 43.4901C235.377 42.5523 235.27 41.6186 235.08 40.7001C235.64 40.1801 236.47 39.6301 236.49 38.7801C236.49 38.7101 236.39 38.7201 236.35 38.7801C235.842 39.3822 235.269 39.9256 234.64 40.4001C234.612 40.4308 234.591 40.4674 234.579 40.5072C234.567 40.5469 234.564 40.5889 234.57 40.6301C234.73 41.5785 234.814 42.5382 234.82 43.5001C234.82 43.7501 234.74 43.9901 234.75 44.2401C234.792 44.4798 234.859 44.7144 234.95 44.9401C235.07 45.4101 235.2 45.8501 235.31 46.3401C233.967 46.5443 232.704 47.1036 231.65 47.9601C231.45 47.9101 231.26 47.9601 231.07 47.8501C231.022 47.821 230.966 47.8056 230.91 47.8056C230.854 47.8056 230.798 47.821 230.75 47.8501C230.658 47.9349 230.594 48.047 230.57 48.1701C230.57 48.3401 230.64 48.4801 230.69 48.6401C228.246 48.4511 225.845 47.8914 223.57 46.9801C220.962 45.862 218.883 43.786 217.76 41.1801C217.69 41.0901 217.76 41.1201 217.76 41.1801C218.249 42.5014 218.996 43.7123 219.958 44.7423C220.919 45.7724 222.076 46.601 223.36 47.1801C225.73 48.1931 228.244 48.8275 230.81 49.0601C230.81 49.0601 230.92 49.0601 230.91 49.0601C230.9 49.0601 230.91 49.1701 230.91 49.1801C230.3 49.3101 229.65 49.3701 229.03 49.4801C229.009 49.5416 229.009 49.6085 229.03 49.6701C229.33 49.7401 229.65 49.7601 229.95 49.8201C230.287 49.8493 230.622 49.9062 230.95 49.9901C230.95 49.9901 230.95 50.1101 230.95 50.1201H230.86C228.36 50.3502 225.909 50.9571 223.59 51.9201C222.27 52.491 221.079 53.3231 220.09 54.3662C219.1 55.4094 218.331 56.6421 217.83 57.9901C217.83 58.0701 217.83 58.0601 217.83 57.9901C218.955 55.3959 221.02 53.3237 223.61 52.1901C225.895 51.3136 228.292 50.7649 230.73 50.5601C230.742 50.5957 230.742 50.6344 230.73 50.6701C230.667 50.7678 230.646 50.8864 230.67 51.0001C230.694 51.1234 230.757 51.2357 230.85 51.3201C230.906 51.3525 230.97 51.3696 231.035 51.3696C231.1 51.3696 231.164 51.3525 231.22 51.3201C231.401 51.2791 231.585 51.2491 231.77 51.2301C232.82 52.0793 234.076 52.6349 235.41 52.8401C235.32 53.3301 235.17 53.7701 235.06 54.2401C234.961 54.4803 234.894 54.7324 234.86 54.9901C234.86 55.2401 234.92 55.4801 234.93 55.7301C234.913 56.7349 234.826 57.7373 234.67 58.7301C235.22 59.3501 236.01 59.7301 236.46 60.4501C236.46 60.5101 236.61 60.5201 236.61 60.4501C236.61 59.5901 235.76 59.0401 235.19 58.5301C235.378 57.6245 235.489 56.7045 235.52 55.7801C235.482 55.5486 235.503 55.3115 235.58 55.0901C235.691 54.8664 235.788 54.636 235.87 54.4001C236.043 53.9542 236.184 53.4963 236.29 53.0301L237.24 53.1001C237.198 53.7742 237.098 54.4434 236.94 55.1001C237.44 56.2568 237.881 57.4383 238.26 58.6401C239.408 58.958 240.518 59.4006 241.57 59.9601C241.459 59.6772 241.28 59.4266 241.047 59.231C240.815 59.0353 240.538 58.9009 240.24 58.8401C239.68 58.6801 239.12 58.4801 238.58 58.2601C238.42 57.7401 238.26 57.2601 238.12 56.7401C238.063 56.1991 237.925 55.6698 237.71 55.1701C237.909 54.5134 238.07 53.8456 238.19 53.1701L239.11 53.1001C239.21 53.3901 239.18 53.7301 239.26 54.0301C239.384 54.3762 239.538 54.7109 239.72 55.0301C240.03 55.6601 240.36 56.3001 240.72 56.9301C242.033 57.303 243.306 57.8055 244.52 58.4301ZM240.3 52.0001C240.18 51.7567 240.096 51.4974 240.05 51.2301C237.826 52.0013 235.419 52.078 233.15 51.4501C233.09 51.4501 233.08 51.4501 233.15 51.5201C235.392 52.5578 237.939 52.7288 240.3 52.0001Z" fill="#D4D0BA"/>
<path fill-rule="evenodd" clip-rule="evenodd" d="M244 52.0001C243.651 51.7063 243.37 51.3397 243.178 50.9259C242.985 50.5122 242.885 50.0614 242.885 49.6051C242.885 49.1487 242.985 48.6979 243.178 48.2842C243.37 47.8705 243.651 47.5039 244 47.2101C243.662 46.9353 243.236 46.7938 242.801 46.8122C242.366 46.8306 241.953 47.0077 241.64 47.3101C241.494 47.4694 241.389 47.6622 241.335 47.8714C241.281 48.0806 241.279 48.2999 241.33 48.5101C241.479 48.8816 241.577 49.2719 241.62 49.6701C241.54 50.0758 241.437 50.4765 241.31 50.8701C241.282 51.0829 241.305 51.2994 241.379 51.5013C241.452 51.7031 241.572 51.8845 241.73 52.0301C242.054 52.2883 242.456 52.4264 242.87 52.421C243.284 52.4155 243.683 52.2667 244 52.0001Z" fill="#D4D0BA"/>
<path fill-rule="evenodd" clip-rule="evenodd" d="M233.88 52.9201C233.64 52.8001 233.43 52.7501 233.21 52.6501C232.99 52.5501 232.71 52.4101 232.45 52.2901C232.222 52.7976 232.093 53.3441 232.07 53.9001C231.38 54.4101 230.43 54.8301 230.07 55.6801C229.998 55.8669 229.989 56.072 230.043 56.2648C230.097 56.4576 230.211 56.6278 230.37 56.7501C230.532 56.8612 230.716 56.9358 230.909 56.9686C231.102 57.0014 231.301 56.9917 231.49 56.9401C231.911 56.792 232.294 56.5518 232.611 56.2369C232.927 55.922 233.17 55.5405 233.32 55.1201C233.59 54.4301 233.67 53.6401 233.88 52.9201Z" fill="#D4D0BA"/>
<path fill-rule="evenodd" clip-rule="evenodd" d="M233.34 44.0001C233.193 43.5777 232.957 43.1924 232.646 42.8711C232.335 42.5498 231.957 42.3003 231.54 42.1401C231.344 42.0799 231.137 42.0649 230.934 42.0961C230.732 42.1273 230.539 42.2038 230.37 42.3201C230.223 42.4355 230.114 42.593 230.059 42.7717C230.004 42.9503 230.004 43.1416 230.06 43.3201C230.38 44.2001 231.36 44.6201 232.06 45.1501C232.067 45.3891 232.097 45.6269 232.15 45.8601C232.218 46.1279 232.302 46.3917 232.4 46.6501C232.4 46.7301 232.47 46.8401 232.56 46.7701C232.62 46.73 232.683 46.6965 232.75 46.6701L233.12 46.4901C233.38 46.3701 233.61 46.3001 233.9 46.1801C233.69 45.5301 233.6 44.7501 233.34 44.0001Z" fill="#D4D0BA"/>
<path fill-rule="evenodd" clip-rule="evenodd" d="M231.35 57.4601C231.35 57.4101 231.35 57.4601 231.35 57.3701C231.35 57.2801 231.3 57.3201 231.26 57.3701C231.029 57.4187 230.789 57.4046 230.566 57.329C230.342 57.2535 230.143 57.1195 229.988 56.9407C229.834 56.762 229.731 56.5452 229.689 56.313C229.647 56.0807 229.668 55.8414 229.75 55.6201C229.263 55.4745 228.758 55.4004 228.25 55.4001C228.213 55.3998 228.176 55.41 228.144 55.4294C228.112 55.4488 228.087 55.4768 228.07 55.5101C228.058 55.5492 228.058 55.5909 228.07 55.6301C228.049 56.4167 227.754 57.1714 227.235 57.7632C226.717 58.355 226.007 58.7466 225.23 58.8701C223.823 59.1894 222.357 59.1481 220.97 58.7501C220.97 58.7501 220.89 58.7501 220.88 58.7501C220.87 58.7501 220.88 58.7501 220.88 58.8301C221.575 59.645 222.45 60.287 223.436 60.7053C224.421 61.1236 225.491 61.3067 226.56 61.2401C228.74 61.1001 231 59.8301 231.35 57.4601ZM230.56 57.9401C230.56 57.8801 230.56 57.85 230.48 57.84C230.254 57.7833 230.038 57.6922 229.84 57.5701C229.67 58.1789 229.344 58.733 228.896 59.1783C228.447 59.6236 227.89 59.9446 227.28 60.1101C226.177 60.4004 225.024 60.4516 223.9 60.2601C223.887 60.2545 223.874 60.2517 223.86 60.2517C223.846 60.2517 223.833 60.2545 223.82 60.2601C223.82 60.2601 223.9 60.2601 223.92 60.2601C226.22 61.1601 229.65 60.6301 230.56 57.9301V57.9401Z" fill="#D4D0BA"/>
<path fill-rule="evenodd" clip-rule="evenodd" d="M231.37 41.8001C231.14 39.3801 228.82 38.0401 226.64 37.9401C225.544 37.8636 224.446 38.0518 223.439 38.4886C222.431 38.9254 221.543 39.5982 220.85 40.4501C222.254 40.0366 223.74 39.985 225.17 40.3001C225.945 40.4296 226.652 40.8246 227.168 41.4175C227.684 42.0104 227.978 42.7642 228 43.5501C227.99 43.5894 227.99 43.6307 228 43.6701C228.007 43.6937 228.02 43.7151 228.037 43.7326C228.055 43.75 228.076 43.7629 228.1 43.7701C228.633 43.799 229.167 43.7208 229.67 43.5401C229.574 43.314 229.548 43.0642 229.596 42.8233C229.645 42.5825 229.764 42.3617 229.94 42.1901C230.131 42.0063 230.37 41.8814 230.63 41.8301C230.871 41.7648 231.124 41.7545 231.37 41.8001ZM223.93 38.8001C223.88 38.8001 223.84 38.8701 223.93 38.8601C225.152 38.648 226.406 38.7303 227.59 39.1001C228.292 39.3399 228.899 39.7992 229.32 40.4101C229.522 40.698 229.687 41.0105 229.81 41.3401C229.81 41.4101 229.81 41.5301 229.9 41.5301C229.99 41.5301 230.04 41.4401 230.13 41.4101C230.279 41.3334 230.443 41.2891 230.61 41.2801C229.74 38.5101 226.25 38.0001 223.93 38.8201V38.8001Z" fill="#D4D0BA"/>
<path fill-rule="evenodd" clip-rule="evenodd" d="M227.65 55.7301C227.647 55.6947 227.632 55.6616 227.606 55.6375C227.58 55.6133 227.545 55.6 227.51 55.6001C225.62 55.4801 223.37 55.5101 222.05 57.1701C222.05 57.1701 221.98 57.2301 222.05 57.2601C222.12 57.2901 222.11 57.2601 222.14 57.2601C222.899 56.9977 223.697 56.8658 224.5 56.8701C225.31 56.8701 226.05 57.3001 226.86 57.3101C226.923 57.3094 226.986 57.2947 227.043 57.267C227.1 57.2393 227.15 57.1994 227.19 57.1501C227.51 56.7481 227.674 56.2435 227.65 55.7301Z" fill="#D4D0BA"/>
<path fill-rule="evenodd" clip-rule="evenodd" d="M227.16 42.0001C227.12 41.9488 227.068 41.9077 227.009 41.8799C226.95 41.8521 226.885 41.8385 226.82 41.8401C225.936 42.039 225.041 42.1892 224.14 42.2901C223.688 42.2651 223.239 42.1981 222.8 42.0901L222.15 41.9101C222.09 41.9101 222.01 41.8401 222 41.9101C221.99 41.9801 222.06 42.0001 222.1 42.0501C222.188 42.1548 222.282 42.2549 222.38 42.3501C223.78 43.6901 225.84 43.6601 227.62 43.5401C227.654 43.2655 227.631 42.9869 227.551 42.7218C227.472 42.4567 227.339 42.211 227.16 42.0001Z" fill="#D4D0BA"/>
</svg>
