<svg width="50" height="50" viewBox="0 0 50 50" fill="none" xmlns="http://www.w3.org/2000/svg">
<path fill-rule="evenodd" clip-rule="evenodd" d="M24.5674 49.9942C24.9331 50.0207 25.2999 49.9561 25.6346 49.8062C25.9693 49.6564 26.2617 49.4259 26.4856 49.1353C26.85 48.5395 27.0061 47.8396 26.9294 47.1454C26.9128 46.4642 26.7619 45.7928 26.4856 45.1699C26.3516 44.8107 26.1293 44.4912 25.839 44.241C25.5487 43.9908 25.2 43.8178 24.825 43.7384C24.4349 43.7444 24.0553 43.8641 23.7323 44.0828C23.4094 44.3016 23.1573 44.6096 23.007 44.9695C22.6886 45.5825 22.5034 46.2556 22.463 46.945C22.3731 47.6234 22.4775 48.3133 22.7636 48.9349C22.9479 49.2515 23.2107 49.5152 23.5266 49.7009C23.8426 49.8864 24.201 49.9875 24.5674 49.9942Z" fill="#D4D0BA"/>
<path fill-rule="evenodd" clip-rule="evenodd" d="M22.1765 49.1637C22.2091 49.1566 22.24 49.1425 22.2671 49.1229C22.2942 49.1032 22.3169 49.0781 22.334 49.0492C22.334 49.0492 22.334 48.9633 22.334 48.9204C22.1053 48.2003 22.028 47.4407 22.1069 46.6894C22.1856 45.938 22.419 45.2111 22.792 44.5542C22.792 44.5542 22.9352 44.411 22.792 44.411C22.7451 44.3988 22.6957 44.3988 22.6489 44.411C21.3873 44.9987 20.3733 46.0125 19.7858 47.2741C19.6253 47.5879 19.5864 47.9498 19.6762 48.2905C19.7659 48.6312 19.9782 48.9268 20.2725 49.1208C20.8789 49.3749 21.5591 49.3902 22.1765 49.1637Z" fill="#D4D0BA"/>
<path fill-rule="evenodd" clip-rule="evenodd" d="M29.1191 49.2491C29.4144 49.0525 29.6261 48.7534 29.7135 48.4095C29.8008 48.0656 29.7573 47.7017 29.5915 47.3881C29.0038 46.1265 27.9899 45.1127 26.7284 44.525C26.7284 44.525 26.5853 44.4391 26.5566 44.525C26.528 44.6109 26.5566 44.6109 26.6425 44.6539C27.017 45.3132 27.2488 46.0439 27.3226 46.7984C27.3967 47.5532 27.3112 48.3149 27.072 49.0344C27.0603 49.0556 27.0535 49.079 27.0525 49.1032C27.0514 49.1274 27.0558 49.1515 27.0655 49.1737C27.0751 49.1958 27.0899 49.2155 27.1083 49.2309C27.1268 49.2465 27.1487 49.2577 27.1722 49.2634C27.7996 49.5046 28.4951 49.4995 29.1191 49.2491Z" fill="#D4D0BA"/>
<path fill-rule="evenodd" clip-rule="evenodd" d="M27.6166 44.4846C28.1892 42.6236 26.271 41.4068 24.7535 41.4211C23.2361 41.4354 21.3465 42.6093 21.8905 44.4417C22.3314 44.1506 22.8141 43.9286 23.322 43.7832C23.574 43.688 23.818 43.573 24.052 43.4396C24.2784 43.342 24.5214 43.2884 24.7677 43.2821C25.3117 43.2821 25.7269 43.64 26.1993 43.7975C26.7085 43.9414 27.1883 44.174 27.6166 44.4846Z" fill="#D4D0BA"/>
<path fill-rule="evenodd" clip-rule="evenodd" d="M21.6763 42.5205C22.0331 42.0544 22.4925 41.6768 23.0188 41.4169C23.5451 41.157 24.1241 41.0218 24.7112 41.0218C25.2981 41.0218 25.8772 41.157 26.4036 41.4169C26.9298 41.6768 27.3892 42.0544 27.7461 42.5205C28.6193 40.4018 26.3145 38.9273 24.5537 38.9989C22.7929 39.0705 20.7888 40.4877 21.6763 42.5205Z" fill="#D4D0BA"/>
<path fill-rule="evenodd" clip-rule="evenodd" d="M28.0175 40.2456C28.9336 38.041 26.5859 36.4807 24.7679 36.452C22.9498 36.4234 20.4732 38.0697 21.4324 40.2313C21.8104 39.7118 22.3062 39.2892 22.8792 38.9983C23.4521 38.7074 24.0859 38.5564 24.7285 38.5578C25.3711 38.5593 26.0041 38.7129 26.5759 39.0063C27.1475 39.2996 27.6415 39.7244 28.0175 40.2456Z" fill="#D4D0BA"/>
<path fill-rule="evenodd" clip-rule="evenodd" d="M12.0417 38.3846C14.189 37.5543 14.0458 34.9775 14.9048 33.2454C15.735 32.8732 16.6226 32.6298 17.4672 32.2863C17.8463 32.0545 18.2712 31.9079 18.7126 31.8568C19.1564 31.8568 19.5716 31.8568 20.0297 31.8568C20.2471 32.6274 20.6063 33.3507 21.089 33.9898C21.5688 33.5735 22.1858 33.3492 22.8212 33.3599C23.4797 33.3599 24.0093 33.7894 24.6678 33.818C25.3264 33.8466 25.8703 33.4172 26.5145 33.3599C26.8508 33.3373 27.1884 33.3814 27.5077 33.4895C27.8271 33.5975 28.122 33.7676 28.3755 33.9898C28.857 33.3502 29.2161 32.627 29.4349 31.8568C29.8786 31.8568 30.2652 31.8568 30.6946 31.8568C31.1622 31.9003 31.6131 32.0523 32.0116 32.3006C32.8562 32.6441 33.7438 32.8732 34.5741 33.2597C35.3901 34.9919 35.2326 37.5543 37.4372 38.3989C36.4916 36.5731 35.7384 34.6542 35.1896 32.6728C34.3021 32.229 33.4289 31.7709 32.5413 31.3414C32.0793 31.0861 31.6011 30.8613 31.1098 30.6686C30.666 30.5255 30.165 30.5827 29.6782 30.4396L29.7641 29.1226C30.7311 28.9501 31.6871 28.7206 32.6272 28.4354C33.2976 28.7401 34.0132 28.9334 34.7459 29.008C35.5169 29.2052 36.2768 29.4441 37.022 29.7238C37.8237 31.1553 37.6519 33.317 39.47 34.0184C38.6729 32.5124 38.044 30.9234 37.5946 29.28C35.8748 28.7353 34.1836 28.1046 32.527 27.3904C31.5868 27.616 30.6288 27.7597 29.6639 27.8199L29.5494 26.4742C30.1952 26.3112 30.8309 26.1103 31.4533 25.873C31.7873 25.758 32.1126 25.6193 32.4268 25.4578C32.7424 25.3233 33.0893 25.2787 33.4289 25.329C34.7712 25.2966 36.108 25.1433 37.4229 24.8709C38.1673 25.6725 38.9546 26.8607 40.1714 26.8894C40.2716 26.8894 40.2573 26.7462 40.1714 26.6889C39.3093 25.9621 38.5314 25.141 37.8523 24.241C37.8082 24.2009 37.7558 24.1712 37.699 24.1538C37.642 24.1365 37.5819 24.1321 37.5231 24.1408C36.1652 24.3697 34.7914 24.4894 33.4145 24.4987C33.0567 24.4987 32.7131 24.3842 32.3552 24.3985C32.0121 24.4585 31.6761 24.5545 31.3531 24.6848C30.6803 24.8566 30.0504 25.0427 29.349 25.2001C29.0565 23.2782 28.2559 21.4694 27.0299 19.9607C27.1015 19.6744 27.0299 19.4024 27.1874 19.1304C27.229 19.0613 27.2509 18.9821 27.2509 18.9014C27.2509 18.8206 27.229 18.7415 27.1874 18.6723C27.0658 18.5399 26.9055 18.4496 26.7293 18.4147C26.4859 18.4147 26.2855 18.5149 26.0564 18.5864C26.3269 15.088 27.1282 11.6512 28.4328 8.39388C30.0333 4.66057 33.0051 1.68368 36.7357 0.0766382C36.8216 0.0766382 36.8646 -0.0235629 36.7357 0.00506785C34.8441 0.705376 33.1106 1.77474 31.6361 3.15102C30.1617 4.5273 28.9753 6.18287 28.1465 8.02168C26.6962 11.4137 25.788 15.0126 25.4552 18.6866C25.4552 18.6866 25.4552 18.8441 25.4552 18.8298C25.4552 18.8155 25.2977 18.8298 25.2834 18.8298C25.0973 17.9566 25.0114 17.0261 24.8539 16.1385C24.7658 16.108 24.67 16.108 24.5819 16.1385C24.4817 16.568 24.4531 17.0261 24.3672 17.4555C24.3253 17.9385 24.2438 18.4174 24.1239 18.8871C24.1239 18.8871 23.9521 18.8871 23.9378 18.8871V18.7582C23.6082 15.1791 22.7394 11.6704 21.361 8.35094C20.5436 6.46145 19.3524 4.75691 17.8592 3.33983C16.3658 1.92275 14.6011 0.822476 12.6716 0.105275C12.557 0.105275 12.5713 0.105275 12.6716 0.105275C16.3851 1.71533 19.3515 4.67159 20.9745 8.37956C22.2291 11.6501 23.0147 15.0816 23.3079 18.5721C23.2568 18.5896 23.2014 18.5896 23.1504 18.5721C23.0104 18.4822 22.8406 18.4513 22.678 18.4862C22.5014 18.5203 22.3406 18.6106 22.2199 18.7439C22.1734 18.8244 22.1489 18.9157 22.1489 19.0087C22.1489 19.1016 22.1734 19.193 22.2199 19.2736C22.2785 19.5333 22.3214 19.7961 22.3488 20.0609C21.1329 21.5633 20.3376 23.3615 20.044 25.2717C19.3425 25.1429 18.7126 24.9281 18.0398 24.7707C17.6958 24.6291 17.3349 24.5329 16.9662 24.4844C16.6083 24.4844 16.2647 24.5703 15.9068 24.5846C14.4683 24.5605 13.0333 24.4361 11.6122 24.2124C10.7247 24.9997 10.1807 26.1306 9.14997 26.7748C9.06408 26.7748 9.04976 26.9896 9.14997 26.9896C10.3811 26.9896 11.1684 25.7728 11.8985 24.9568C13.1948 25.2262 14.5119 25.3842 15.8353 25.4292C16.1665 25.3752 16.5059 25.4047 16.823 25.5151C17.1431 25.6743 17.4729 25.813 17.8108 25.9302C18.449 26.178 19.1045 26.379 19.772 26.5315L19.6718 27.8914C18.7066 27.832 17.7487 27.6883 16.8087 27.462C15.1527 28.1777 13.4613 28.8085 11.7411 29.3516C11.2858 30.9953 10.6522 32.5842 9.85142 34.09C10.2563 33.9317 10.615 33.6744 10.8952 33.3419C11.1752 33.0093 11.3676 32.6119 11.4547 32.186C11.6838 31.3844 11.9701 30.5827 12.285 29.8097C13.0294 29.5806 13.7166 29.3516 14.461 29.1512C15.2354 29.0699 15.9931 28.872 16.7085 28.5643C17.6484 28.8496 18.6044 29.079 19.5716 29.2514L19.6718 30.5684C19.2566 30.7116 18.7699 30.6686 18.3404 30.7831C17.8448 30.9602 17.3657 31.1805 16.9089 31.4416C16.007 31.8854 15.0909 32.3578 14.189 32.8732C13.6595 34.7776 12.9401 36.624 12.0417 38.3846ZM21.2894 32.3435C21.6377 32.172 22.0089 32.0515 22.3917 31.9856C21.2876 28.8012 21.1778 25.3563 22.0768 22.108C22.0768 22.0221 22.0768 22.0078 21.9766 22.108C20.4862 25.316 20.2362 28.9622 21.2751 32.3435H21.2894Z" fill="#D4D0BA"/>
<path fill-rule="evenodd" clip-rule="evenodd" d="M21.2903 37.6245C21.7108 37.1246 22.2356 36.7228 22.8279 36.4471C23.4201 36.1714 24.0654 36.0286 24.7188 36.0286C25.372 36.0286 26.0173 36.1714 26.6096 36.4471C27.2018 36.7228 27.7266 37.1246 28.1473 37.6245C28.5406 37.1412 28.7431 36.5307 28.7168 35.9081C28.6905 35.2857 28.4369 34.6943 28.0042 34.2461C27.776 34.0371 27.5 33.8875 27.2005 33.81C26.901 33.7327 26.5871 33.73 26.2863 33.8023C25.7544 34.0162 25.1956 34.1557 24.6257 34.2174C24.0448 34.1036 23.4712 33.9555 22.9079 33.7737C22.6031 33.7336 22.2932 33.7672 22.0042 33.8719C21.7153 33.9765 21.4556 34.149 21.2473 34.3749C20.8775 34.838 20.6799 35.4149 20.6877 36.0074C20.6955 36.5998 20.9085 37.1713 21.2903 37.6245Z" fill="#D4D0BA"/>
<path fill-rule="evenodd" clip-rule="evenodd" d="M19.9157 23.1537C20.0875 22.8101 20.1591 22.5095 20.3022 22.1946C20.4454 21.8796 20.6458 21.4788 20.8176 21.1066C20.0909 20.7802 19.3086 20.5955 18.5128 20.5626C17.7827 19.5748 17.1815 18.2149 15.9647 17.6995C15.6971 17.5967 15.4035 17.583 15.1275 17.6603C14.8515 17.7378 14.608 17.9021 14.4329 18.129C14.2737 18.3605 14.1669 18.6237 14.12 18.9006C14.073 19.1776 14.0869 19.4613 14.1609 19.7323C14.3728 20.3353 14.7167 20.8834 15.1675 21.3366C15.6182 21.7899 16.1644 22.1367 16.7663 22.352C17.7541 22.7385 18.885 22.8387 19.9157 23.1537Z" fill="#D4D0BA"/>
<path fill-rule="evenodd" clip-rule="evenodd" d="M32.6272 22.3786C33.2319 22.1689 33.7833 21.8296 34.2432 21.3846C34.7032 20.9395 35.0604 20.3994 35.2898 19.8019C35.3759 19.5213 35.3973 19.225 35.3527 18.9349C35.3082 18.6449 35.1985 18.3688 35.0322 18.127C34.8668 17.9162 34.6413 17.7609 34.3855 17.6816C34.1299 17.6023 33.856 17.6029 33.6006 17.6832C32.3409 18.1413 31.7396 19.5442 30.9809 20.5463C30.6386 20.5556 30.2982 20.5988 29.9645 20.6751C29.581 20.7727 29.2034 20.8923 28.8336 21.033C28.7191 21.033 28.5616 21.1332 28.6618 21.262C28.7191 21.3474 28.767 21.4385 28.805 21.534L29.0625 22.0637C29.2343 22.4359 29.3346 22.7652 29.5064 23.1803C30.4942 22.8654 31.6251 22.7365 32.6272 22.3786Z" fill="#D4D0BA"/>
<path fill-rule="evenodd" clip-rule="evenodd" d="M13.4304 19.5316C13.502 19.5316 13.4304 19.5316 13.5592 19.5316C13.6881 19.5316 13.6308 19.46 13.5592 19.4028C13.4895 19.0721 13.5098 18.7288 13.6179 18.4087C13.726 18.0886 13.918 17.8033 14.1738 17.5826C14.4296 17.3618 14.74 17.2137 15.0724 17.1537C15.4049 17.0936 15.7475 17.1238 16.0644 17.2412C16.2727 16.5444 16.3788 15.8211 16.3794 15.0938C16.3796 15.0404 16.3652 14.9881 16.3373 14.9425C16.3095 14.897 16.2696 14.8602 16.2219 14.8362C16.1658 14.8194 16.1061 14.8194 16.0501 14.8362C14.9239 14.8067 13.8435 14.3839 12.9963 13.6414C12.1492 12.8989 11.5887 11.8832 11.4119 10.7706C10.9547 8.75586 11.0138 6.65808 11.5837 4.67225C11.5837 4.67225 11.5837 4.55772 11.5837 4.54341C11.5837 4.52909 11.5837 4.54341 11.4692 4.54341C10.3025 5.53804 9.38343 6.79064 8.78462 8.20185C8.18581 9.61321 7.92369 11.1445 8.01917 12.6745C8.17664 15.7953 10.0376 19.0878 13.4304 19.5316ZM12.7433 18.4007C12.8291 18.4007 12.8721 18.4007 12.8864 18.2862C12.9676 17.9628 13.098 17.6539 13.2729 17.37C12.396 17.1306 11.5967 16.6667 10.9541 16.0241C10.3114 15.3813 9.84753 14.5821 9.60818 13.7053C9.19246 12.1261 9.11917 10.4764 9.39345 8.86666C9.40133 8.84862 9.40533 8.82915 9.40533 8.8094C9.40533 8.78964 9.40133 8.77017 9.39345 8.75213C9.39345 8.75213 9.39345 8.86666 9.39345 8.89529C8.17664 12.1878 8.8781 17.098 12.7433 18.3864V18.4007Z" fill="#D4D0BA"/>
<path fill-rule="evenodd" clip-rule="evenodd" d="M35.8341 19.5449C39.2984 19.2157 41.2167 15.8945 41.3598 12.7737C41.4692 11.2054 41.1999 9.63352 40.5745 8.19096C39.9492 6.74854 38.9862 5.47748 37.7667 4.48514C38.3585 6.49545 38.4325 8.62286 37.9814 10.6694C37.8136 11.7974 37.2539 12.8303 36.4006 13.5869C35.5471 14.3434 34.4545 14.7752 33.3146 14.8065C33.2582 14.7919 33.1991 14.7919 33.1428 14.8065C33.109 14.8168 33.0782 14.8352 33.0532 14.8602C33.0283 14.8851 33.0098 14.9159 32.9997 14.9497C32.9581 15.7133 33.0701 16.4776 33.3289 17.1972C33.6524 17.0596 34.01 17.0228 34.3549 17.0918C34.6996 17.1608 35.0157 17.3322 35.2615 17.5837C35.5245 17.8567 35.7033 18.1996 35.7768 18.5715C35.8626 18.8886 35.8821 19.22 35.8341 19.5449ZM40.1287 8.89428C40.1287 8.8227 40.0285 8.76544 40.0428 8.89428C40.3463 10.6432 40.2285 12.4393 39.6993 14.1337C39.3558 15.1389 38.6983 16.0072 37.8239 16.6103C37.4117 16.8996 36.9643 17.1352 36.4926 17.3117C36.3924 17.3117 36.2206 17.3117 36.2206 17.4406C36.2206 17.5694 36.3494 17.641 36.3924 17.7698C36.5021 17.9833 36.5655 18.2173 36.5785 18.457C40.5439 17.2258 41.3455 12.2298 40.1001 8.9086L40.1287 8.89428Z" fill="#D4D0BA"/>
<path fill-rule="evenodd" clip-rule="evenodd" d="M15.8917 14.2327C15.9422 14.2291 15.9896 14.2063 16.0241 14.1691C16.0588 14.1319 16.0778 14.0831 16.0778 14.0323C16.2496 11.3267 16.2067 8.10569 13.8303 6.21606C13.8303 6.21606 13.7444 6.11585 13.7015 6.21606C13.6585 6.31627 13.7015 6.30196 13.7015 6.3449C14.077 7.43144 14.2658 8.57366 14.2598 9.72333C14.2598 10.8829 13.6442 11.9422 13.6299 13.1018C13.6307 13.1925 13.6519 13.282 13.6914 13.3636C13.7311 13.4453 13.7882 13.5172 13.8589 13.5742C14.4343 14.0328 15.1566 14.2669 15.8917 14.2327Z" fill="#D4D0BA"/>
<path fill-rule="evenodd" clip-rule="evenodd" d="M35.5619 13.518C35.6352 13.4602 35.6941 13.3862 35.7339 13.3017C35.7737 13.2173 35.7931 13.1246 35.791 13.0313C35.5061 11.7652 35.2911 10.4844 35.1468 9.19478C35.1824 8.54786 35.2783 7.90568 35.4331 7.27652L35.6908 6.34602C35.6908 6.26013 35.791 6.1456 35.6908 6.13129C35.5906 6.11697 35.5619 6.21718 35.4904 6.27444C35.3403 6.40056 35.197 6.5344 35.0609 6.67527C33.1426 8.67942 33.1856 11.6284 33.3574 14.1765C33.7503 14.2252 34.1491 14.1918 34.5286 14.0785C34.9082 13.9651 35.2599 13.7743 35.5619 13.518Z" fill="#D4D0BA"/>
</svg>
