<svg width="68" height="62" viewBox="0 0 68 62" fill="none" xmlns="http://www.w3.org/2000/svg">
<path d="M9.56253 0H56.4375V4.6875H9.56253V0Z" fill="white"/>
<path d="M56.4375 4.6875V0L57.9998 4.68747L56.4375 4.6875Z" fill="white"/>
<path d="M9.56253 0V4.6875L8.00003 2.87599e-05L9.56253 0Z" fill="white"/>
<path d="M56.4373 20.3125L56.4376 15.625L57.9998 20.3125L56.4373 20.3125Z" fill="white"/>
<path d="M9.56253 15.625L9.56229 20.3125L8.00003 15.625L9.56253 15.625Z" fill="white"/>
<path d="M9.56253 15.625H56.4376L56.4373 20.3125H9.56229L9.56253 15.625Z" fill="white"/>
<path d="M9.56253 31.25H56.4375V35.9375H9.56253V31.25Z" fill="white"/>
<path d="M56.4375 35.9375V31.25L57.9998 35.9375L56.4375 35.9375Z" fill="white"/>
<path d="M9.56253 31.25V35.9375L8.00003 31.25L9.56253 31.25Z" fill="white"/>
<path d="M9.67049 49.3636V61H8.05685L2.14208 52.4659H2.03412V61H0.278442V49.3636H1.90344L7.8239 57.9091H7.93185V49.3636H9.67049Z" fill="white"/>
<path d="M13.2145 61H11.3509L15.5384 49.3636H17.5668L21.7543 61H19.8907L16.6009 51.4773H16.51L13.2145 61ZM13.527 56.4432H19.5725V57.9205H13.527V56.4432Z" fill="white"/>
<path d="M23.233 49.3636L26.4716 58.8409H26.6023L29.8409 49.3636H31.7387L27.5512 61H25.5228L21.3353 49.3636H23.233Z" fill="white"/>
<path d="M35.1747 49.3636V61H33.4191V49.3636H35.1747Z" fill="white"/>
<path d="M45.6066 53.0398C45.4967 52.6951 45.349 52.3864 45.1634 52.1136C44.9816 51.8371 44.7638 51.6023 44.51 51.4091C44.2562 51.2121 43.9664 51.0625 43.6407 50.9602C43.3187 50.858 42.9645 50.8068 42.5782 50.8068C41.9229 50.8068 41.3319 50.9754 40.8054 51.3125C40.2789 51.6496 39.8622 52.1439 39.5554 52.7955C39.2524 53.4432 39.1009 54.2367 39.1009 55.1761C39.1009 56.1193 39.2543 56.9167 39.5611 57.5682C39.8679 58.2197 40.2884 58.714 40.8225 59.0511C41.3566 59.3883 41.9645 59.5568 42.6463 59.5568C43.2789 59.5568 43.8301 59.428 44.2997 59.1705C44.7732 58.9129 45.1388 58.5492 45.3963 58.0795C45.6577 57.6061 45.7884 57.0492 45.7884 56.4091L46.2429 56.4943H42.9134V55.0455H47.4872V56.3693C47.4872 57.3466 47.2789 58.1951 46.8622 58.9148C46.4494 59.6307 45.8774 60.1837 45.1463 60.5739C44.4191 60.964 43.5857 61.1591 42.6463 61.1591C41.5933 61.1591 40.6691 60.9167 39.8736 60.4318C39.0819 59.947 38.4645 59.2595 38.0213 58.3693C37.5782 57.4754 37.3566 56.4148 37.3566 55.1875C37.3566 54.2595 37.4854 53.4261 37.7429 52.6875C38.0005 51.9489 38.3623 51.322 38.8282 50.8068C39.2979 50.2879 39.849 49.892 40.4816 49.6193C41.1179 49.3428 41.813 49.2045 42.5668 49.2045C43.1956 49.2045 43.7808 49.2973 44.3225 49.483C44.8679 49.6686 45.3528 49.9318 45.777 50.2727C46.2051 50.6136 46.5592 51.0189 46.8395 51.4886C47.1198 51.9545 47.3092 52.4716 47.4077 53.0398H45.6066Z" fill="white"/>
<path d="M49.7159 61V49.3636H57.0114V50.875H51.4716V54.4205H56.6307V55.9261H51.4716V59.4886H57.0796V61H49.7159Z" fill="white"/>
<path d="M59.3566 61V49.3636H63.5043C64.4058 49.3636 65.1539 49.5189 65.7486 49.8295C66.3471 50.1402 66.7941 50.5701 67.0895 51.1193C67.385 51.6648 67.5327 52.2955 67.5327 53.0114C67.5327 53.7235 67.3831 54.3504 67.0838 54.892C66.7884 55.4299 66.3414 55.8485 65.7429 56.1477C65.1482 56.447 64.4001 56.5966 63.4986 56.5966H60.3566V55.0852H63.3395C63.9077 55.0852 64.3698 55.0038 64.7259 54.8409C65.0857 54.678 65.349 54.4413 65.5157 54.1307C65.6823 53.8201 65.7657 53.447 65.7657 53.0114C65.7657 52.572 65.6804 52.1913 65.51 51.8693C65.3433 51.5473 65.0801 51.3011 64.7202 51.1307C64.3641 50.9564 63.8963 50.8693 63.3168 50.8693H61.1122V61H59.3566ZM65.1009 55.75L67.9759 61H65.9759L63.1577 55.75H65.1009Z" fill="white"/>
</svg>
