<svg width="50" height="36" viewBox="0 0 50 36" fill="none" xmlns="http://www.w3.org/2000/svg">
<rect x="1.5625" width="46.875" height="4.6875" fill="white"/>
<path d="M48.4373 4.6875L48.4375 0L49.9998 4.68747L48.4373 4.6875Z" fill="white"/>
<path d="M1.5625 7.55422e-08L1.56226 4.6875L0 2.87599e-05L1.5625 7.55422e-08Z" fill="white"/>
<path d="M48.4373 20.3125L48.4375 15.625L49.9998 20.3125L48.4373 20.3125Z" fill="white"/>
<path d="M1.5625 15.625L1.56226 20.3125L0 15.625L1.5625 15.625Z" fill="white"/>
<rect x="1.5625" y="15.625" width="46.875" height="4.6875" fill="white"/>
<rect x="1.5625" y="31.25" width="46.875" height="4.6875" fill="white"/>
<path d="M48.4373 35.9375L48.4375 31.25L49.9998 35.9375L48.4373 35.9375Z" fill="white"/>
<path d="M1.5625 31.25L1.56226 35.9375L0 31.25L1.5625 31.25Z" fill="white"/>
</svg>
